<svg width="152" height="51" viewBox="0 0 152 51" fill="none" xmlns="http://www.w3.org/2000/svg">
<path d="M56.2263 36.2276C54.7282 36.2276 53.2776 36 51.8743 35.5449C50.49 35.0708 49.3996 34.464 48.6032 33.7244L49.6556 31.5058C50.4141 32.1884 51.3813 32.7479 52.557 33.184C53.7516 33.6012 54.9747 33.8098 56.2263 33.8098C57.8761 33.8098 59.1087 33.5348 59.9241 32.9849C60.7395 32.416 61.1472 31.667 61.1472 30.7378C61.1472 30.0551 60.9196 29.5052 60.4645 29.088C60.0284 28.6519 59.4784 28.32 58.8147 28.0924C58.17 27.8649 57.2503 27.6089 56.0556 27.3244C54.5576 26.9641 53.3439 26.6039 52.4147 26.2436C51.5045 25.8833 50.7176 25.3333 50.0538 24.5938C49.4091 23.8353 49.0867 22.8207 49.0867 21.5502C49.0867 20.4883 49.3617 19.5307 49.9116 18.6773C50.4805 17.824 51.3338 17.1413 52.4716 16.6293C53.6094 16.1173 55.0221 15.8613 56.7098 15.8613C57.8856 15.8613 59.0423 16.013 60.1801 16.3164C61.3178 16.6198 62.2944 17.056 63.1098 17.6249L62.1712 19.9004C61.3368 19.3695 60.4456 18.9713 59.4974 18.7058C58.5493 18.4213 57.6201 18.2791 56.7098 18.2791C55.098 18.2791 53.8844 18.573 53.069 19.1609C52.2725 19.7487 51.8743 20.5073 51.8743 21.4364C51.8743 22.1191 52.1018 22.6785 52.557 23.1147C53.0121 23.5319 53.5715 23.8637 54.2352 24.1102C54.9178 24.3378 55.8376 24.5843 56.9943 24.8498C58.4924 25.2101 59.6965 25.5704 60.6067 25.9307C61.517 26.291 62.2944 26.8409 62.9392 27.5804C63.6029 28.32 63.9347 29.3156 63.9347 30.5671C63.9347 31.6101 63.6503 32.5677 63.0814 33.44C62.5125 34.2933 61.6497 34.976 60.493 35.488C59.3362 35.981 57.914 36.2276 56.2263 36.2276ZM81.4876 20.9244V41.5182H78.757V33.7244C78.1312 34.5209 77.3632 35.1277 76.453 35.5449C75.5617 35.9621 74.5756 36.1707 73.4947 36.1707C72.0346 36.1707 70.7261 35.8483 69.5694 35.2036C68.4127 34.5588 67.5024 33.6581 66.8387 32.5013C66.194 31.3256 65.8716 29.9793 65.8716 28.4622C65.8716 26.9452 66.194 25.6083 66.8387 24.4516C67.5024 23.2948 68.4127 22.3941 69.5694 21.7493C70.7261 21.1046 72.0346 20.7822 73.4947 20.7822C74.6136 20.7822 75.6376 21.0003 76.5667 21.4364C77.4959 21.8536 78.2639 22.4794 78.8707 23.3138V20.9244H81.4876ZM73.7223 33.7813C74.6704 33.7813 75.5333 33.5633 76.3107 33.1271C77.0882 32.672 77.695 32.0462 78.1312 31.2498C78.5673 30.4344 78.7854 29.5052 78.7854 28.4622C78.7854 27.4193 78.5579 26.4996 78.1027 25.7031C77.6666 24.9067 77.0598 24.2904 76.2823 23.8542C75.5238 23.3991 74.6704 23.1716 73.7223 23.1716C72.7552 23.1716 71.8829 23.3896 71.1054 23.8258C70.3469 24.2619 69.7401 24.8877 69.285 25.7031C68.8488 26.4996 68.6307 27.4193 68.6307 28.4622C68.6307 29.5052 68.8488 30.4344 69.285 31.2498C69.7401 32.0462 70.3469 32.672 71.1054 33.1271C71.8829 33.5633 72.7552 33.7813 73.7223 33.7813ZM100.279 20.9244V36H97.6907V33.7244C97.1408 34.5019 96.4107 35.1087 95.5005 35.5449C94.6093 35.9621 93.6327 36.1707 92.5707 36.1707C90.5607 36.1707 88.9773 35.6207 87.8205 34.5209C86.6638 33.4021 86.0854 31.7618 86.0854 29.6V20.9244H88.8161V29.2871C88.8161 30.7473 89.1669 31.8566 89.8685 32.6151C90.5701 33.3547 91.5752 33.7244 92.8836 33.7244C94.3248 33.7244 95.4626 33.2883 96.297 32.416C97.1313 31.5437 97.5485 30.3111 97.5485 28.7182V20.9244H100.279ZM110.541 20.7822C112.627 20.7822 114.22 21.2942 115.319 22.3182C116.438 23.3422 116.998 24.8687 116.998 26.8978V36H114.409V34.0089C113.954 34.7105 113.3 35.251 112.447 35.6302C111.612 35.9905 110.617 36.1707 109.46 36.1707C107.772 36.1707 106.416 35.763 105.392 34.9476C104.387 34.1321 103.885 33.0607 103.885 31.7333C103.885 30.4059 104.368 29.344 105.335 28.5476C106.303 27.7321 107.839 27.3244 109.943 27.3244H114.267V26.784C114.267 25.6083 113.926 24.7076 113.243 24.0818C112.56 23.456 111.555 23.1431 110.228 23.1431C109.337 23.1431 108.464 23.2948 107.611 23.5982C106.758 23.8827 106.037 24.2714 105.449 24.7644L104.311 22.7164C105.089 22.0907 106.018 21.6166 107.099 21.2942C108.18 20.9529 109.327 20.7822 110.541 20.7822ZM109.915 34.0658C110.958 34.0658 111.859 33.8382 112.617 33.3831C113.376 32.909 113.926 32.2453 114.267 31.392V29.2871H110.057C107.744 29.2871 106.587 30.0646 106.587 31.6196C106.587 32.3781 106.881 32.9754 107.469 33.4116C108.057 33.8477 108.872 34.0658 109.915 34.0658ZM124.241 23.456C124.715 22.5837 125.417 21.92 126.346 21.4649C127.275 21.0098 128.404 20.7822 129.731 20.7822V23.4276C129.579 23.4086 129.371 23.3991 129.105 23.3991C127.626 23.3991 126.46 23.8447 125.607 24.736C124.772 25.6083 124.355 26.8599 124.355 28.4907V36H121.624V20.9244H124.241V23.456ZM146.156 28.5476C146.156 28.7561 146.137 29.0311 146.099 29.3724H133.868C134.039 30.6999 134.617 31.7713 135.603 32.5867C136.608 33.3831 137.85 33.7813 139.329 33.7813C141.131 33.7813 142.581 33.1745 143.681 31.9609L145.189 33.7244C144.506 34.5209 143.653 35.1277 142.629 35.5449C141.624 35.9621 140.495 36.1707 139.244 36.1707C137.651 36.1707 136.238 35.8483 135.006 35.2036C133.773 34.5399 132.815 33.6201 132.133 32.4444C131.469 31.2687 131.137 29.9413 131.137 28.4622C131.137 27.0021 131.46 25.6841 132.104 24.5084C132.768 23.3327 133.669 22.4225 134.807 21.7778C135.963 21.1141 137.262 20.7822 138.703 20.7822C140.145 20.7822 141.425 21.1141 142.543 21.7778C143.681 22.4225 144.563 23.3327 145.189 24.5084C145.833 25.6841 146.156 27.0305 146.156 28.5476ZM138.703 23.0862C137.395 23.0862 136.295 23.4844 135.404 24.2809C134.532 25.0773 134.02 26.1203 133.868 27.4098H143.539C143.387 26.1393 142.866 25.1058 141.975 24.3093C141.102 23.4939 140.012 23.0862 138.703 23.0862Z" fill="black"/>
<path fill-rule="evenodd" clip-rule="evenodd" d="M19.731 4.72217H1.71661e-05L8.30782 15.3559H28.0388L19.731 4.72217ZM8.3078 15.3559V40.6111L0 29.9773V4.72217L8.3078 15.3559Z" fill="black"/>
<path fill-rule="evenodd" clip-rule="evenodd" d="M8.30777 40.6111H28.0388L19.731 29.9773L-3.43323e-05 29.9773L8.30777 40.6111ZM19.731 29.9773L19.731 4.72219L28.0388 15.3559L28.0388 40.6111L19.731 29.9773Z" fill="black"/>
</svg>
