<svg width="743" height="572" viewBox="0 0 743 572" fill="none" xmlns="http://www.w3.org/2000/svg">
<g clip-path="url(#clip0)">
<path opacity="0.18" d="M723.659 422.845C715.619 386.854 690.326 364.1 678.936 329.456C669.431 300.5 671.42 268.999 665.892 238.996C655.214 180.999 616.48 131.407 569.58 96.9553C522.68 62.5037 467.677 41.3537 413.03 22.4491C391.422 14.9857 369.459 7.75748 347.076 3.60874C335.747 1.44761 324.262 0.253044 312.739 0.0374039C252.983 -0.75385 198.315 31.0246 158.22 74.5222C140.151 94.1966 116.156 121.848 108.2 148.173C99.0086 178.561 107.572 213.419 98.9039 244.856C91.8898 270.261 75.8726 291.903 61.6142 313.844C29.496 363.03 3.5544 424.171 22.3563 480.093C38.7294 528.83 86.9904 561.271 136.864 569.462C186.737 577.653 237.636 564.992 284.662 546.387C315.398 534.241 346.281 519.25 379.236 519.399C409.847 519.527 438.72 532.701 467.886 542.174C519.629 558.897 574.256 564.225 628.163 557.807C649.645 555.219 671.629 550.472 689.321 537.748C723.24 513.219 732.913 464.268 723.659 422.845Z" fill="#292961"/>
<path d="M291.655 477.313C245.008 482.963 199.036 493.388 154.43 508.429C149.363 510.139 143.668 512.556 142.077 517.753C190.431 524.044 239.287 525.277 287.886 521.431C319.795 518.907 351.515 514.203 383.424 511.85C450.654 506.889 518.429 512.406 585.45 504.964C588.78 504.838 592.038 503.938 594.977 502.334C596.413 501.504 597.55 500.224 598.221 498.684C598.892 497.144 599.061 495.425 598.704 493.78C597.606 491.363 595.631 489.476 593.197 488.519C581.933 482.809 568.826 482.702 556.242 482.873C471.362 484.049 385.999 493.181 301.893 481.419" fill="url(#paint0_linear)"/>
<path d="M424.001 245.989C388.407 229.159 351.117 212.628 311.943 213.676C297.538 214.061 283.238 216.841 268.812 216.927C244.753 217.036 221.223 209.716 201.309 195.926C190.547 233.821 179.883 271.744 169.317 309.696C166.406 320.153 162.533 330.867 160.607 341.56C157.424 359.245 196.598 368.077 209.203 369.703C223.733 371.585 238.515 370.13 253.172 370.622C265.64 370.724 277.932 373.645 289.163 379.176C300.093 384.865 312.823 388.008 324.464 392.478C353.127 403.449 383.361 412.879 413.846 410.078C444.331 407.277 475.277 389.655 486.102 360.421C488.677 353.471 490.059 346.115 492.383 339.036C498.371 321.18 517.382 297.891 497.366 283.157C476.052 267.31 447.87 257.238 424.001 245.989Z" fill="#292961"/>
<path d="M396.929 249.346C381.707 242.268 366.527 234.762 350.259 230.763C311.294 221.246 269.461 232.666 230.727 222.208C228.898 226.416 225.509 229.709 221.304 231.365C217.1 233.021 212.423 232.905 208.302 231.041H208.198C206.418 238.162 206.46 246.802 205.078 254.308C203.347 263.603 201.302 272.835 198.943 282.002C194.309 300.04 188.504 317.744 181.565 334.994C185.041 334.631 187.972 338.095 188.433 341.645C188.605 345.221 187.884 348.782 186.339 351.996C186.109 352.552 197.541 356.059 198.629 356.273C202.802 356.786 207.019 356.786 211.192 356.273C220.279 355.524 229.114 352.851 238.138 351.568C272.204 346.735 305.494 361.79 338.764 370.815C349.933 373.814 361.266 376.135 372.704 377.765C380.911 378.941 389.328 379.732 397.41 377.765C405.492 375.797 413.344 371.114 420.441 366.046C434.03 356.294 446.655 344.66 455.512 330.396C462.568 318.977 475.947 288.652 462.756 277.532C454.884 270.903 439.997 268.123 430.512 264.124C419.192 259.419 407.998 254.493 396.929 249.346Z" fill="url(#paint1_linear)"/>
<path d="M386.565 255.099C348.877 244.15 309.473 233.714 270.947 241.049C256.752 243.743 243.059 248.769 228.842 251.164C205.084 255.105 180.714 251.616 158.932 241.156C154.088 280.319 149.356 319.483 144.736 358.646C143.459 369.446 141.281 380.63 141.009 391.515C140.57 409.479 180.602 411.96 193.353 411.553C208.009 411.083 222.331 407.276 236.861 405.459C249.192 403.491 261.798 404.368 273.753 408.025C285.415 411.874 298.48 412.965 310.666 415.51C340.649 421.776 371.95 426.202 401.64 418.653C431.329 411.104 459.176 388.714 465.415 358.069C466.881 350.798 467.132 343.313 468.388 335.999C471.592 317.394 486.813 291.368 464.766 280.013C441.149 267.93 411.857 262.498 386.565 255.099Z" fill="#292961"/>
<path d="M360.33 262.776C344.208 258.2 328.065 253.217 311.399 251.87C271.45 248.683 231.836 266.647 192.055 262.562C191.477 264.778 190.476 266.855 189.109 268.674C187.743 270.493 186.037 272.017 184.091 273.16C182.145 274.303 179.997 275.042 177.77 275.333C175.544 275.625 173.283 275.464 171.117 274.859C170.447 282.194 171.808 290.705 171.578 298.383C171.285 307.835 170.678 317.309 169.757 326.718C167.943 345.274 164.914 363.685 160.691 381.828C164.082 380.908 167.516 383.966 168.5 387.303C169.194 390.816 168.999 394.452 167.935 397.867C167.788 398.466 179.618 400.112 180.728 400.112C184.898 399.982 189.038 399.343 193.06 398.209C201.937 396.07 210.25 391.986 218.96 389.27C251.873 379.069 287.049 388.628 321.26 392.136C332.752 393.315 344.302 393.801 355.849 393.59C364.224 393.419 372.599 392.884 380.262 389.74C388.281 386.49 394.919 380.63 401.2 374.493C413.113 362.688 423.833 349.28 430.387 333.69C435.6 321.308 444.206 289.208 429.466 280.227C420.672 274.923 405.534 274.56 395.568 272.122C383.759 269.213 372.013 266.098 360.33 262.776Z" fill="url(#paint2_linear)"/>
<path d="M238.976 386.896C238.143 382.986 237.528 379.03 237.133 375.049C237.196 371.114 237.595 367.193 238.327 363.33C240.253 349.023 238.327 334.502 237.489 320.067C236.652 305.632 236.568 290.727 241.886 277.297C243.859 271.731 247.301 266.831 251.832 263.14C257.233 259.119 264.08 257.815 270.675 257.024C279.05 256.019 287.844 255.655 295.8 258.734C293.759 259.832 291.961 261.348 290.52 263.188C289.079 265.028 288.025 267.152 287.425 269.427C286.287 274.021 285.863 278.77 286.169 283.499C286.588 298.656 288.305 313.748 291.299 328.6C294.251 343.377 298.355 358.988 293.393 373.188C290.608 381.101 285.227 387.709 281.144 395.023C278.443 399.877 275.114 405.865 269.628 405.715C267.92 405.522 266.24 405.12 264.624 404.518C260.533 403.683 256.321 403.683 252.229 404.518C249.508 404.903 243.624 406.934 241.153 405.437C236.882 403.042 239.625 391.195 238.976 386.896Z" fill="url(#paint3_linear)"/>
<path d="M533.295 257.836H290.524C272.647 257.836 258.155 272.639 258.155 290.898V466.706C258.155 484.965 272.647 499.768 290.524 499.768H533.295C551.172 499.768 565.664 484.965 565.664 466.706V290.898C565.664 272.639 551.172 257.836 533.295 257.836Z" fill="#292961"/>
<path d="M533.295 257.836H290.524C272.647 257.836 258.155 272.639 258.155 290.898V466.706C258.155 484.965 272.647 499.768 290.524 499.768H533.295C551.172 499.768 565.664 484.965 565.664 466.706V290.898C565.664 272.639 551.172 257.836 533.295 257.836Z" fill="url(#paint4_linear)"/>
<path d="M565.664 311.941H258.155V451.287H565.664V311.941Z" fill="url(#paint5_linear)"/>
<path d="M559.697 365.319H440.437C427.925 365.319 417.782 375.678 417.782 388.457V406.271C417.782 419.051 427.925 429.41 440.437 429.41H559.697C572.209 429.41 582.351 419.051 582.351 406.271V388.457C582.351 375.678 572.209 365.319 559.697 365.319Z" fill="url(#paint6_linear)"/>
<path d="M563.047 347.27H443.787C431.275 347.27 421.132 357.629 421.132 370.408V388.222C421.132 401.002 431.275 411.361 443.787 411.361H563.047C575.559 411.361 585.701 401.002 585.701 388.222V370.408C585.701 357.629 575.559 347.27 563.047 347.27Z" fill="#292961"/>
<path d="M452.392 400.112C463.921 400.112 473.267 390.567 473.267 378.791C473.267 367.016 463.921 357.47 452.392 357.47C440.863 357.47 431.517 367.016 431.517 378.791C431.517 390.567 440.863 400.112 452.392 400.112Z" fill="url(#paint7_linear)"/>
<path d="M193.123 502.505C218.054 502.505 238.264 481.862 238.264 456.398C238.264 430.934 218.054 410.292 193.123 410.292C168.192 410.292 147.981 430.934 147.981 456.398C147.981 481.862 168.192 502.505 193.123 502.505Z" fill="#F8C244"/>
<path d="M193.144 495.726C214.397 495.726 231.627 478.128 231.627 456.42C231.627 434.711 214.397 417.114 193.144 417.114C171.89 417.114 154.661 434.711 154.661 456.42C154.661 478.128 171.89 495.726 193.144 495.726Z" fill="#E8A825"/>
<path d="M189.605 481.163V474.854C186.305 474.837 183.074 473.89 180.267 472.117L181.733 467.84C184.332 469.568 187.363 470.496 190.464 470.513C194.84 470.513 197.75 467.968 197.75 464.418C197.75 460.868 195.384 458.858 190.861 456.976C184.58 454.474 180.77 451.608 180.77 446.283C180.77 440.958 184.371 437.173 190.003 436.232V429.945H193.793V435.975C196.571 436.005 199.297 436.74 201.728 438.114L200.221 442.391C197.902 440.967 195.242 440.227 192.536 440.253C187.826 440.253 186.067 443.14 186.067 445.62C186.067 448.871 188.328 450.475 193.625 452.742C199.906 455.351 203.089 458.601 203.089 464.14C203.069 466.825 202.072 469.407 200.292 471.383C198.512 473.359 196.076 474.588 193.458 474.833V481.248L189.605 481.163Z" fill="#F8C244"/>
<path d="M198.525 437.579C195.191 445.958 194.719 455.239 197.185 463.926C199.09 470.555 202.649 476.586 204.576 483.173C205.205 485.093 205.475 487.117 205.371 489.139C204.973 493.181 202.168 496.496 199.509 499.511C203.089 500.259 206.711 498.57 209.977 496.752C215.046 494.216 219.5 490.564 223.022 486.06C225.442 482.393 227.188 478.305 228.172 473.998C231.648 460.73 231.648 446.763 228.172 433.495C226.853 428.555 221.661 414.932 214.793 418.119C207.926 421.305 201.351 430.458 198.525 437.579Z" fill="url(#paint8_linear)"/>
<path d="M248.251 503.767C273.182 503.767 293.393 483.124 293.393 457.66C293.393 432.196 273.182 411.553 248.251 411.553C223.32 411.553 203.11 432.196 203.11 457.66C203.11 483.124 223.32 503.767 248.251 503.767Z" fill="#F8C244"/>
<path d="M248.251 496.966C269.505 496.966 286.734 479.368 286.734 457.66C286.734 435.952 269.505 418.354 248.251 418.354C226.998 418.354 209.768 435.952 209.768 457.66C209.768 479.368 226.998 496.966 248.251 496.966Z" fill="#E8A825"/>
<path d="M230.245 474.618L234.139 469.721C231.585 467.588 229.658 464.776 228.57 461.595L232.276 459.285C233.236 462.302 235.024 464.974 237.427 466.984C240.818 469.785 244.65 469.678 246.848 466.984C249.047 464.289 248.419 461.146 246.074 456.783C242.766 450.817 241.551 446.09 244.88 441.813C248.209 437.536 253.255 437.066 258.239 439.953L262.112 435.056L265.064 437.494L261.337 442.177C263.478 443.998 265.14 446.335 266.174 448.977L262.489 451.287C261.551 448.697 259.936 446.419 257.82 444.7C254.156 441.664 251.015 442.776 249.445 444.7C247.351 447.224 248.209 449.94 250.931 455.094C254.219 461.167 254.679 465.786 251.266 470.063C249.595 472.12 247.24 473.475 244.652 473.869C242.064 474.264 239.425 473.67 237.238 472.202L233.176 477.142L230.245 474.618Z" fill="#F8C244"/>
<path d="M522.177 239.958C547.108 239.958 567.318 219.316 567.318 193.852C567.318 168.388 547.108 147.745 522.177 147.745C497.246 147.745 477.036 168.388 477.036 193.852C477.036 219.316 497.246 239.958 522.177 239.958Z" fill="#F8C244"/>
<path d="M522.177 233.136C543.431 233.136 560.66 215.538 560.66 193.83C560.66 172.122 543.431 154.524 522.177 154.524C500.923 154.524 483.694 172.122 483.694 193.83C483.694 215.538 500.923 233.136 522.177 233.136Z" fill="#E8A825"/>
<path d="M524.48 218.744L523.014 212.628C519.802 213.414 516.438 213.273 513.299 212.222L513.76 207.795C516.688 208.843 519.848 209.013 522.868 208.287C527.055 207.239 529.358 204.01 528.542 200.609C527.725 197.209 524.941 195.776 520.167 195.049C513.53 194.108 509.133 192.248 507.877 186.987C506.62 181.726 509.258 177.278 514.514 175.011L513.048 168.895L516.733 167.976L518.136 173.835C520.853 173.2 523.683 173.273 526.364 174.049L525.862 178.476C523.28 177.656 520.526 177.582 517.906 178.262C513.32 179.395 512.273 182.539 512.86 185.041C513.613 188.185 516.189 189.318 521.863 190.109C528.584 191.136 532.332 193.531 533.693 198.92C534.268 201.526 533.88 204.257 532.605 206.59C531.33 208.922 529.257 210.691 526.783 211.559L528.291 217.974L524.48 218.744Z" fill="#F8C244"/>
<path d="M456.245 290.577C471.13 300.19 488.635 304.686 506.202 303.408C501.574 319.836 498.978 336.791 498.476 353.877C498.176 356.792 498.608 359.736 499.732 362.432C501.637 366.131 505.762 368.013 509.698 369.146C516.731 371.179 524.084 371.797 531.348 370.964C528.698 356.843 527.005 342.553 526.281 328.194C525.946 316.496 526.909 304.841 527.202 293.165C527.328 288.182 528.27 281.724 527.202 276.848C526.134 271.972 520.921 269.32 517.654 266.155C512.441 261.042 508.568 254.674 506.39 247.636C505.01 243.716 504.713 239.484 505.532 235.403C506.746 230.613 510.18 226.721 511.813 222.08C513.446 217.44 512.483 210.896 507.793 209.57C504.233 208.565 499.878 211.088 496.926 208.779C495.879 207.945 495.251 206.64 494.142 205.849C493.116 205.307 491.945 205.126 490.809 205.335C489.673 205.544 488.636 206.131 487.86 207.004C486.361 208.811 485.171 210.864 484.343 213.077C479.775 221.977 472.769 229.326 464.18 234.227C458.788 237.405 453.1 240.027 447.2 242.054C442.761 243.658 435.747 244.043 431.936 246.652C427.581 249.624 431.161 257.131 433.088 261.921C437.87 273.597 445.927 283.567 456.245 290.577Z" fill="url(#paint9_linear)"/>
<path d="M520.711 366.302C521.15 366.838 521.721 367.244 522.365 367.478C531.536 371.627 541.921 371.755 551.971 371.755C552.629 371.82 553.293 371.71 553.897 371.435C554.424 371.044 554.796 370.472 554.946 369.825C555.096 369.178 555.014 368.497 554.714 367.906C554.054 366.761 553.107 365.816 551.971 365.169C549.043 363.198 545.961 361.474 542.758 360.015C540.225 358.881 537.378 357.641 536.352 355.032C535.957 353.638 535.718 352.204 535.64 350.755C534.677 344.746 525.443 347.697 522.344 350.755C519.581 353.642 518.638 363.287 520.711 366.302Z" fill="#FCAB9A"/>
<path d="M432.083 225.651C432.083 225.651 426.346 255.591 451.597 268.123C469.1 276.805 490.289 278.388 509.426 279.136C512.797 279.264 516.566 278.922 519.895 279.393C526.553 280.269 524.627 284.568 523.831 290.278C522.03 304.734 520.104 319.162 518.052 333.561C516.501 341.061 516.609 348.82 518.366 356.273L538.487 353.514C540.628 332.552 544.473 311.808 549.982 291.497C552.369 282.686 555.677 271.715 550.736 263.311C545.86 255.76 538.943 249.817 530.824 246.203L480.239 222.102L432.083 225.651Z" fill="#473F47"/>
<path d="M501.281 145.414C506.934 143.062 513.383 140.88 519.015 143.276C520.442 143.814 521.641 144.842 522.407 146.184C522.873 147.508 522.9 148.951 522.484 150.292C522.067 151.633 521.231 152.797 520.104 153.605C517.778 155.141 515.159 156.155 512.42 156.577C507.562 157.711 502.747 159.101 497.994 160.705C497.178 160.94 496.396 161.285 495.67 161.731C494.871 162.333 494.165 163.054 493.576 163.87C489.195 169.216 484.18 173.985 478.648 178.069C480.155 176.957 479.611 166.757 480.009 164.639C480.142 163.341 480.581 162.095 481.288 161.007C481.995 159.92 482.95 159.023 484.071 158.395C490.247 154.374 494.309 148.322 501.281 145.414Z" fill="#FCAB9A"/>
<path d="M487.483 92.0367C488.237 93.8331 490.101 95.0734 490.54 97.0195C490.98 98.9655 489.242 101.425 488.153 103.628C486.709 106.579 486.604 110.043 485.138 113.08C484.879 113.739 484.435 114.304 483.861 114.705C483.322 114.962 482.739 115.107 482.144 115.133C479.83 115.323 477.501 115.157 475.235 114.641C474.823 114.448 474.362 114.388 473.916 114.47C473.537 114.731 473.268 115.128 473.162 115.582C471.092 121.304 470.417 127.454 471.194 133.503C471.445 135.47 471.696 137.908 470.126 139.106C469.574 139.511 468.921 139.748 468.242 139.79C463.74 140.303 459.867 136.454 457.438 132.647C455.223 129.184 453.417 125.466 452.057 121.57C451.596 120.444 451.347 119.24 451.324 118.02C451.409 116.581 451.765 115.173 452.371 113.871C454.235 109.162 455.637 104.277 456.559 99.2863C457.71 92.8708 458.213 86.1558 461.207 80.5101C462.194 78.5715 463.755 77.0001 465.666 76.0192C467.87 75.3041 470.222 75.2154 472.471 75.7626C477.117 76.0641 481.472 78.1771 484.636 81.6649C485.473 82.9266 486.52 89.7913 487.483 92.0367Z" fill="#FCAB9A"/>
<path d="M476.805 227.298C473.521 229.511 469.807 230.97 465.918 231.575C460.383 232.883 455.06 234.993 450.11 237.841C447.137 239.659 445.127 242.76 442.51 245.069C440.43 246.867 437.987 248.173 435.356 248.894C432.724 249.615 429.969 249.733 427.288 249.239C427.037 248.491 426.765 247.721 426.513 246.951C418.138 221.289 419.478 193.488 421.97 166.949C423.163 154.375 432.836 114.106 451.408 118.79C451.408 118.79 469.017 131.214 473.727 139.704C478.02 147.553 484.196 153.861 483.128 163.549C481.579 177.171 474.439 189.211 473.748 203.39C473.503 205.443 473.747 207.527 474.46 209.463C475.737 212.222 478.753 213.868 480.009 216.606C480.689 218.501 480.744 220.571 480.166 222.502C479.587 224.432 478.407 226.116 476.805 227.298Z" fill="white"/>
<path d="M448.686 205.485C449.086 207.408 449.794 209.251 450.78 210.938C453.453 214.4 457.316 216.694 461.584 217.354C466.413 218.549 471.307 219.456 476.24 220.07C483.526 221.011 489.368 224.347 496.968 221.439C502.184 219.161 506.829 215.711 510.557 211.345C511.729 210.083 512.65 207.688 511.185 206.897C510.777 206.74 510.343 206.667 509.908 206.683H497.24C496.989 205.656 497.722 204.673 498.224 203.753C498.727 202.833 498.936 201.422 498.015 200.909C497.094 200.396 496.319 201.058 495.607 201.572C492.04 204.044 487.943 205.605 483.661 206.122C479.38 206.639 475.039 206.098 471.006 204.544C463.552 201.657 462.987 192.184 461.898 184.934C461.887 184.031 461.668 183.144 461.256 182.344C460.845 181.545 460.254 180.857 459.532 180.336C458.941 180.114 458.312 180.015 457.683 180.044C457.054 180.074 456.437 180.231 455.868 180.507C451.541 181.891 447.88 184.883 445.608 188.89C443.745 192.932 447.535 201.016 448.686 205.485Z" fill="#FCAB9A"/>
<path d="M452.643 144.152C452.643 144.152 464.955 177.128 467.3 179.545C469.645 181.961 444.394 196.91 444.394 196.91C444.394 196.91 427.518 164.832 428.146 150.931C428.775 137.031 443.159 131.064 452.643 144.152Z" fill="white"/>
<path d="M488.823 81.7289C484.908 87.7381 481.307 84.1026 476.847 80.0822L478.145 85.7279L470.503 89.2992L466.316 85.2788C467.321 90.0477 465.499 94.9022 463.992 99.5428C461.772 106.365 460.223 113.849 462.484 120.65C464.327 126.21 468.64 131.129 468.493 136.988L459.574 128.434C457.485 126.184 455.061 124.286 452.392 122.81C451.076 122.103 449.62 121.71 448.133 121.658C446.647 121.606 445.168 121.897 443.808 122.511C442.613 123.265 441.521 124.178 440.562 125.226C435.998 129.846 430.785 134.187 428.126 140.324C425.781 145.692 425.843 152.428 421.844 157.112C416.401 163.677 406.036 161.945 398.52 158.117C393.322 155.717 388.784 152.044 385.308 147.424C383.556 144.848 382.319 141.945 381.666 138.88C381.014 135.815 380.959 132.649 381.506 129.562C382.052 126.476 383.189 123.53 384.851 120.892C386.513 118.255 388.668 115.978 391.192 114.192C393.09 112.848 395.171 111.796 397.368 111.069C401.032 109.872 405.325 109.38 407.67 106.258C410.454 102.537 408.926 97.2545 409.093 92.5712C409.233 89.5094 410.153 86.5379 411.761 83.9502C413.37 81.3624 415.611 79.2479 418.264 77.8154C425.655 73.9232 436.061 75.2705 440.918 68.3845C442.328 65.84 443.573 63.204 444.645 60.4933C449.105 51.9392 462.128 49.9718 468.87 56.7723C470.135 58.4469 471.724 59.8374 473.539 60.8569C474.951 61.2822 476.424 61.4558 477.894 61.3701C480.326 61.3249 482.73 61.9114 484.88 63.0747C487.03 64.238 488.855 65.9399 490.184 68.0209C492.132 71.5495 491.273 77.7512 489.2 81.1728L488.823 81.7289Z" fill="#FC682D"/>
<path d="M519.204 359.993C517.69 362.489 517.075 365.446 517.466 368.355C517.531 369.29 517.883 370.18 518.471 370.9C519.116 371.454 519.886 371.837 520.711 372.012C531.159 375.303 542.022 377.018 552.955 377.102C554.374 377.19 555.797 376.994 557.143 376.524C557.808 376.288 558.405 375.884 558.877 375.349C559.349 374.814 559.682 374.167 559.844 373.466C559.93 372.496 559.756 371.52 559.341 370.643C557.988 367.385 555.425 364.808 552.215 363.477C549.004 362.146 545.408 362.17 542.214 363.543L541.837 363.714C540.74 364.352 539.582 364.875 538.383 365.276C537.191 365.488 535.973 365.488 534.781 365.276C531.7 364.914 528.654 364.291 525.674 363.415C523.458 362.394 521.298 361.252 519.204 359.993Z" fill="#473F47"/>
</g>
<defs>
<linearGradient id="paint0_linear" x1="373.73" y1="331.444" x2="365.998" y2="730.594" gradientUnits="userSpaceOnUse">
<stop offset="0.01"/>
<stop offset="0.13" stop-opacity="0.69"/>
<stop offset="0.25" stop-opacity="0.32"/>
<stop offset="1" stop-opacity="0"/>
</linearGradient>
<linearGradient id="paint1_linear" x1="86711.1" y1="-18306.4" x2="42823" y2="-76330.3" gradientUnits="userSpaceOnUse">
<stop offset="0.01"/>
<stop offset="0.13" stop-opacity="0.69"/>
<stop offset="0.25" stop-opacity="0.32"/>
<stop offset="1" stop-opacity="0"/>
</linearGradient>
<linearGradient id="paint2_linear" x1="68865.9" y1="-16556" x2="19664.3" y2="-65392.7" gradientUnits="userSpaceOnUse">
<stop offset="0.01"/>
<stop offset="0.13" stop-opacity="0.69"/>
<stop offset="0.25" stop-opacity="0.32"/>
<stop offset="1" stop-opacity="0"/>
</linearGradient>
<linearGradient id="paint3_linear" x1="13254.8" y1="17153.3" x2="252.082" y2="20841.6" gradientUnits="userSpaceOnUse">
<stop offset="0.01"/>
<stop offset="0.13" stop-opacity="0.69"/>
<stop offset="0.25" stop-opacity="0.32"/>
<stop offset="1" stop-opacity="0"/>
</linearGradient>
<linearGradient id="paint4_linear" x1="48329.9" y1="-14404" x2="87936.5" y2="-69166.1" gradientUnits="userSpaceOnUse">
<stop offset="0.01"/>
<stop offset="0.13" stop-opacity="0.69"/>
<stop offset="0.25" stop-opacity="0.32"/>
<stop offset="1" stop-opacity="0"/>
</linearGradient>
<linearGradient id="paint5_linear" x1="111191" y1="-32258" x2="76670.4" y2="23328.8" gradientUnits="userSpaceOnUse">
<stop offset="0.01"/>
<stop offset="0.13" stop-opacity="0.69"/>
<stop offset="0.25" stop-opacity="0.32"/>
<stop offset="1" stop-opacity="0"/>
</linearGradient>
<linearGradient id="paint6_linear" x1="44141.4" y1="-11654.6" x2="44269.9" y2="-3338.53" gradientUnits="userSpaceOnUse">
<stop offset="0.01"/>
<stop offset="0.13" stop-opacity="0.69"/>
<stop offset="0.25" stop-opacity="0.32"/>
<stop offset="1" stop-opacity="0"/>
</linearGradient>
<linearGradient id="paint7_linear" x1="9791.75" y1="-7438.53" x2="12152" y2="-2181.3" gradientUnits="userSpaceOnUse">
<stop offset="0.01"/>
<stop offset="0.13" stop-opacity="0.69"/>
<stop offset="0.25" stop-opacity="0.32"/>
<stop offset="1" stop-opacity="0"/>
</linearGradient>
<linearGradient id="paint8_linear" x1="5830.51" y1="9157.78" x2="2528.61" y2="8848.36" gradientUnits="userSpaceOnUse">
<stop offset="0.01"/>
<stop offset="0.13" stop-opacity="0.69"/>
<stop offset="0.25" stop-opacity="0.32"/>
<stop offset="1" stop-opacity="0"/>
</linearGradient>
<linearGradient id="paint9_linear" x1="622.133" y1="102.494" x2="226.687" y2="658.382" gradientUnits="userSpaceOnUse">
<stop offset="0.01"/>
<stop offset="0.08" stop-opacity="0.69"/>
<stop offset="0.21" stop-opacity="0.32"/>
<stop offset="1" stop-opacity="0"/>
</linearGradient>
<clipPath id="clip0">
<rect width="743" height="571.97" fill="white" transform="translate(0 0.0158691)"/>
</clipPath>
</defs>
</svg>
