<svg width="1440" height="500" viewBox="0 0 1440 500" fill="none" xmlns="http://www.w3.org/2000/svg">
<path d="M-8 400L42.2333 391.719C92.4667 382.812 192.933 367.188 293.4 333.281C393.867 300 494.333 250 594.8 208.281C695.267 167.188 795.733 132.813 896.2 150C996.667 167.188 1097.13 232.812 1197.6 241.719C1298.07 250 1398.53 200 1448.77 175L1499 150V500H1448.77C1398.53 500 1298.07 500 1197.6 500C1097.13 500 996.667 500 896.2 500C795.733 500 695.267 500 594.8 500C494.333 500 393.867 500 293.4 500C192.933 500 92.4667 500 42.2333 500H-8V400Z" fill="#292961"/>
</svg>
