<svg width="1440" height="284" viewBox="0 0 1440 284" fill="none" xmlns="http://www.w3.org/2000/svg">
<path d="M-115 227.2L-63.1 222.496C-11.2 217.437 92.6 208.562 196.4 189.304C300.2 170.4 404 142 507.8 118.304C611.6 94.9625 715.4 75.4375 819.2 85.2C923 94.9625 1026.8 132.237 1130.6 137.296C1234.4 142 1338.2 113.6 1390.1 99.4L1442 85.2V284H1390.1C1338.2 284 1234.4 284 1130.6 284C1026.8 284 923 284 819.2 284C715.4 284 611.6 284 507.8 284C404 284 300.2 284 196.4 284C92.6 284 -11.2 284 -63.1 284H-115V227.2Z" fill="#292961"/>
</svg>
