<svg width="1440" height="320" viewBox="0 0 1440 320" fill="none" xmlns="http://www.w3.org/2000/svg">
<path d="M-13 256L35.4333 250.7C83.8667 245 180.733 235 277.6 213.3C374.467 192 471.333 160 568.2 133.3C665.067 107 761.933 84.9999 858.8 95.9999C955.667 107 1052.53 149 1149.4 154.7C1246.27 160 1343.13 128 1391.57 112L1440 95.9999V320H1391.57C1343.13 320 1246.27 320 1149.4 320C1052.53 320 955.667 320 858.8 320C761.933 320 665.067 320 568.2 320C471.333 320 374.467 320 277.6 320C180.733 320 83.8667 320 35.4333 320H-13V256Z" fill="#292961"/>
</svg>
